<svg version="1.1" viewBox="0.0 0.0 960.0 720.0" fill="none" stroke="none" stroke-linecap="square" stroke-miterlimit="10" xmlns:xlink="http://www.w3.org/1999/xlink" xmlns="http://www.w3.org/2000/svg"><clipPath id="p.0"><path d="m0 0l960.0 0l0 720.0l-960.0 0l0 -720.0z" clip-rule="nonzero"/></clipPath><g clip-path="url(#p.0)"><path fill="#000000" fill-opacity="0.0" d="m0 0l960.0 0l0 720.0l-960.0 0z" fill-rule="evenodd"/><path fill="#ff9900" d="m110.687195 273.30823l0 0c-2.7826614 -21.160812 6.3533554 -42.108734 23.531296 -53.95479c17.177948 -11.846054 39.385178 -12.512695 57.19835 -1.7170563l0 0c6.309967 -12.303772 17.859055 -20.798676 31.153885 -22.915176c13.294815 -2.1165009 26.773865 2.3940125 36.35997 12.167175l0 0c5.3752747 -11.1553955 15.929749 -18.65039 27.91809 -19.825378c11.988373 -1.1749878 23.71402 4.136322 31.016022 14.049194l0 0c9.711243 -11.8246765 25.162048 -16.80336 39.66681 -12.781738c14.50473 4.0216217 25.458221 16.321228 28.12082 31.576706l0 0c11.897919 3.358261 21.808624 11.895416 27.171509 23.405716c5.3628845 11.5103 5.651886 24.86464 0.7923279 36.612656l0 0c11.715973 15.77887 14.4566345 36.804047 7.1992188 55.22928c-7.257416 18.425232 -23.422546 31.48233 -42.46289 34.298645c-0.13421631 17.292755 -9.299225 33.16037 -23.962463 41.486755c-14.663239 8.326416 -32.534973 7.811432 -46.726685 -1.3464661c-6.0448914 20.71106 -23.059296 35.950043 -43.692352 39.13318c-20.633026 3.1831055 -41.185837 -6.260254 -52.778824 -24.250244c-14.210587 8.86734 -31.262115 11.421722 -47.30809 7.086975c-16.045975 -4.3347473 -29.734772 -15.193512 -37.978477 -30.12677l0 0c-14.521439 1.7584229 -28.56166 -6.0269165 -35.152557 -19.492188c-6.5908966 -13.465271 -4.329422 -29.74405 5.6620636 -40.757233l0 0c-12.953499 -7.8893127 -19.563156 -23.544312 -16.382294 -38.801575c3.1808624 -15.257233 15.43145 -26.659363 30.363556 -28.26059z" fill-rule="evenodd"/><path fill="#000000" fill-opacity="0.0" d="m96.41888 341.18597l0 0c6.1128006 3.722992 13.174507 5.411804 20.236984 4.839752m9.250328 55.41101c3.0371246 -0.36779785 6.014084 -1.1465759 8.854111 -2.3163452m76.42821 25.355164c-2.1361084 -3.3148193 -3.9245758 -6.8569946 -5.334915 -10.566162m101.8098 -4.317383l0 0c1.1020813 -3.77594 1.8161316 -7.6621704 2.130249 -11.593903m68.55621 -28.544922c0.1428833 -18.410797 -9.962463 -35.267914 -25.975494 -43.33069m61.23883 -46.195312c-2.5932617 6.269226 -6.5521545 11.830566 -11.566284 16.247955m-16.395111 -76.26796l0 0c0.4418335 2.5316467 0.6463318 5.101349 0.6106262 7.673477m-68.397095 -26.467682l0 0c-2.4224854 2.9496613 -4.418274 6.24588 -5.9252625 9.786026m-53.00943 -4.011139l0 0c-1.2909546 2.6791687 -2.2549744 5.5141754 -2.869812 8.439743m-64.64502 2.3084717l0 0c3.7692566 2.2843475 7.256317 5.0338135 10.384613 8.187988m-91.11322 47.48416l0 0c0.38352203 2.916504 0.98950195 5.797058 1.8122787 8.614685" fill-rule="evenodd"/><path stroke="#ff9900" stroke-width="1.0" stroke-linejoin="round" stroke-linecap="butt" d="m110.687195 273.30823l0 0c-2.7826614 -21.160812 6.3533554 -42.108734 23.531296 -53.95479c17.177948 -11.846054 39.385178 -12.512695 57.19835 -1.7170563l0 0c6.309967 -12.303772 17.859055 -20.798676 31.153885 -22.915176c13.294815 -2.1165009 26.773865 2.3940125 36.35997 12.167175l0 0c5.3752747 -11.1553955 15.929749 -18.65039 27.91809 -19.825378c11.988373 -1.1749878 23.71402 4.136322 31.016022 14.049194l0 0c9.711243 -11.8246765 25.162048 -16.80336 39.66681 -12.781738c14.50473 4.0216217 25.458221 16.321228 28.12082 31.576706l0 0c11.897919 3.358261 21.808624 11.895416 27.171509 23.405716c5.3628845 11.5103 5.651886 24.86464 0.7923279 36.612656l0 0c11.715973 15.77887 14.4566345 36.804047 7.1992188 55.22928c-7.257416 18.425232 -23.422546 31.48233 -42.46289 34.298645c-0.13421631 17.292755 -9.299225 33.16037 -23.962463 41.486755c-14.663239 8.326416 -32.534973 7.811432 -46.726685 -1.3464661c-6.0448914 20.71106 -23.059296 35.950043 -43.692352 39.13318c-20.633026 3.1831055 -41.185837 -6.260254 -52.778824 -24.250244c-14.210587 8.86734 -31.262115 11.421722 -47.30809 7.086975c-16.045975 -4.3347473 -29.734772 -15.193512 -37.978477 -30.12677l0 0c-14.521439 1.7584229 -28.56166 -6.0269165 -35.152557 -19.492188c-6.5908966 -13.465271 -4.329422 -29.74405 5.6620636 -40.757233l0 0c-12.953499 -7.8893127 -19.563156 -23.544312 -16.382294 -38.801575c3.1808624 -15.257233 15.43145 -26.659363 30.363556 -28.26059z" fill-rule="evenodd"/><path stroke="#ff9900" stroke-width="1.0" stroke-linejoin="round" stroke-linecap="butt" d="m96.41888 341.18597l0 0c6.1128006 3.722992 13.174507 5.411804 20.236984 4.839752m9.250328 55.41101c3.0371246 -0.36779785 6.014084 -1.1465759 8.854111 -2.3163452m76.42821 25.355164c-2.1361084 -3.3148193 -3.9245758 -6.8569946 -5.334915 -10.566162m101.8098 -4.317383l0 0c1.1020813 -3.77594 1.8161316 -7.6621704 2.130249 -11.593903m68.55621 -28.544922c0.1428833 -18.410797 -9.962463 -35.267914 -25.975494 -43.33069m61.23883 -46.195312c-2.5932617 6.269226 -6.5521545 11.830566 -11.566284 16.247955m-16.395111 -76.26796l0 0c0.4418335 2.5316467 0.6463318 5.101349 0.6106262 7.673477m-68.397095 -26.467682l0 0c-2.4224854 2.9496613 -4.418274 6.24588 -5.9252625 9.786026m-53.00943 -4.011139l0 0c-1.2909546 2.6791687 -2.2549744 5.5141754 -2.869812 8.439743m-64.64502 2.3084717l0 0c3.7692566 2.2843475 7.256317 5.0338135 10.384613 8.187988m-91.11322 47.48416l0 0c0.38352203 2.916504 0.98950195 5.797058 1.8122787 8.614685" fill-rule="evenodd"/><path fill="#0000ff" d="m143.61633 457.48932l0 0c-2.782669 -21.160797 6.353348 -42.108734 23.531296 -53.954773c17.177948 -11.846069 39.385178 -12.512695 57.19835 -1.7170715l0 0c6.309967 -12.303772 17.859055 -20.798676 31.15387 -22.915161c13.29483 -2.116516 26.773865 2.3940125 36.359985 12.167175l0 0c5.3752747 -11.1553955 15.929749 -18.65039 27.91809 -19.825378c11.988373 -1.1749878 23.71399 4.136322 31.016022 14.049194l0 0c9.711243 -11.8246765 25.162048 -16.803375 39.66678 -12.781738c14.504761 4.0216064 25.458252 16.321228 28.12085 31.576721l0 0c11.897888 3.3582458 21.808594 11.895386 27.171509 23.4057c5.3628845 11.510315 5.651886 24.864624 0.7923279 36.61264l0 0c11.715973 15.7789 14.4566345 36.804047 7.1992188 55.229248c-7.257416 18.425232 -23.422577 31.48236 -42.46289 34.298706c-0.13421631 17.292725 -9.299225 33.16034 -23.962463 41.486755c-14.663239 8.326416 -32.534973 7.8114014 -46.726685 -1.3464966c-6.0448914 20.71106 -23.059296 35.950073 -43.692352 39.13318c-20.633026 3.1831055 -41.185837 -6.260254 -52.778824 -24.250244c-14.210587 8.867371 -31.262115 11.421753 -47.30809 7.086975c-16.045975 -4.334778 -29.734787 -15.193481 -37.978485 -30.12677l0 0c-14.521439 1.7584229 -28.56166 -6.0269165 -35.15255 -19.492188c-6.5908966 -13.465271 -4.329422 -29.744019 5.662056 -40.757202l0 0c-12.953491 -7.8893433 -19.563148 -23.544342 -16.382286 -38.801575c3.1808624 -15.257263 15.43145 -26.659363 30.363548 -28.26062z" fill-rule="evenodd"/><path fill="#000000" fill-opacity="0.0" d="m129.348 525.36707l0 0c6.112808 3.7230225 13.174515 5.411804 20.236984 4.8397827m9.250336 55.41095c3.0371246 -0.36773682 6.014084 -1.1465454 8.854111 -2.3162842m76.42821 25.355164c-2.1361084 -3.3148193 -3.9245758 -6.8569946 -5.334915 -10.566162m101.8098 -4.317383l0 0c1.1020813 -3.77594 1.8161316 -7.6622314 2.130249 -11.593933m68.55621 -28.544922c0.1428833 -18.410767 -9.962463 -35.267883 -25.975494 -43.33069m61.23883 -46.195312c-2.5932617 6.269226 -6.5521545 11.830566 -11.566284 16.247986m-16.395142 -76.267975l0 0c0.441864 2.5316467 0.6463623 5.101349 0.61065674 7.6734924m-68.397095 -26.467712l0 0c-2.4224854 2.9496765 -4.418274 6.2459106 -5.9252625 9.786041m-53.00943 -4.011139l0 0c-1.2909546 2.6791687 -2.2549744 5.51416 -2.869812 8.439728m-64.645035 2.3084717l0 0c3.7692566 2.2843628 7.2563324 5.0338135 10.384628 8.187988m-91.11322 47.48416l0 0c0.3835144 2.916504 0.98950195 5.797058 1.8122711 8.614685" fill-rule="evenodd"/><path stroke="#0000ff" stroke-width="1.0" stroke-linejoin="round" stroke-linecap="butt" d="m143.61633 457.48932l0 0c-2.782669 -21.160797 6.353348 -42.108734 23.531296 -53.954773c17.177948 -11.846069 39.385178 -12.512695 57.19835 -1.7170715l0 0c6.309967 -12.303772 17.859055 -20.798676 31.15387 -22.915161c13.29483 -2.116516 26.773865 2.3940125 36.359985 12.167175l0 0c5.3752747 -11.1553955 15.929749 -18.65039 27.91809 -19.825378c11.988373 -1.1749878 23.71399 4.136322 31.016022 14.049194l0 0c9.711243 -11.8246765 25.162048 -16.803375 39.66678 -12.781738c14.504761 4.0216064 25.458252 16.321228 28.12085 31.576721l0 0c11.897888 3.3582458 21.808594 11.895386 27.171509 23.4057c5.3628845 11.510315 5.651886 24.864624 0.7923279 36.61264l0 0c11.715973 15.7789 14.4566345 36.804047 7.1992188 55.229248c-7.257416 18.425232 -23.422577 31.48236 -42.46289 34.298706c-0.13421631 17.292725 -9.299225 33.16034 -23.962463 41.486755c-14.663239 8.326416 -32.534973 7.8114014 -46.726685 -1.3464966c-6.0448914 20.71106 -23.059296 35.950073 -43.692352 39.13318c-20.633026 3.1831055 -41.185837 -6.260254 -52.778824 -24.250244c-14.210587 8.867371 -31.262115 11.421753 -47.30809 7.086975c-16.045975 -4.334778 -29.734787 -15.193481 -37.978485 -30.12677l0 0c-14.521439 1.7584229 -28.56166 -6.0269165 -35.15255 -19.492188c-6.5908966 -13.465271 -4.329422 -29.744019 5.662056 -40.757202l0 0c-12.953491 -7.8893433 -19.563148 -23.544342 -16.382286 -38.801575c3.1808624 -15.257263 15.43145 -26.659363 30.363548 -28.26062z" fill-rule="evenodd"/><path stroke="#0000ff" stroke-width="1.0" stroke-linejoin="round" stroke-linecap="butt" d="m129.348 525.36707l0 0c6.112808 3.7230225 13.174515 5.411804 20.236984 4.8397827m9.250336 55.41095c3.0371246 -0.36773682 6.014084 -1.1465454 8.854111 -2.3162842m76.42821 25.355164c-2.1361084 -3.3148193 -3.9245758 -6.8569946 -5.334915 -10.566162m101.8098 -4.317383l0 0c1.1020813 -3.77594 1.8161316 -7.6622314 2.130249 -11.593933m68.55621 -28.544922c0.1428833 -18.410767 -9.962463 -35.267883 -25.975494 -43.33069m61.23883 -46.195312c-2.5932617 6.269226 -6.5521545 11.830566 -11.566284 16.247986m-16.395142 -76.267975l0 0c0.441864 2.5316467 0.6463623 5.101349 0.61065674 7.6734924m-68.397095 -26.467712l0 0c-2.4224854 2.9496765 -4.418274 6.2459106 -5.9252625 9.786041m-53.00943 -4.011139l0 0c-1.2909546 2.6791687 -2.2549744 5.51416 -2.869812 8.439728m-64.645035 2.3084717l0 0c3.7692566 2.2843628 7.2563324 5.0338135 10.384628 8.187988m-91.11322 47.48416l0 0c0.3835144 2.916504 0.98950195 5.797058 1.8122711 8.614685" fill-rule="evenodd"/><path fill="#ffffff" d="m176.2913 505.19455l0 -17.671875l-6.609375 0l0 -2.375l15.890625 0l0 2.375l-6.640625 0l0 17.671875l-2.640625 0zm7.671875 -7.265625q0 -4.03125 2.234375 -5.96875q1.875 -1.609375 4.5625 -1.609375q3.0 0 4.890625 1.96875q1.90625 1.953125 1.90625 5.40625q0 2.8125 -0.84375 4.421875q-0.828125 1.59375 -2.4375 2.484375q-1.609375 0.890625 -3.515625 0.890625q-3.046875 0 -4.921875 -1.953125q-1.875 -1.953125 -1.875 -5.640625zm2.515625 0q0 2.796875 1.21875 4.1875q1.21875 1.375 3.0625 1.375q1.84375 0 3.046875 -1.390625q1.21875 -1.390625 1.21875 -4.25q0 -2.6875 -1.21875 -4.078125q-1.21875 -1.390625 -3.046875 -1.390625q-1.84375 0 -3.0625 1.390625q-1.21875 1.375 -1.21875 4.15625zm13.962891 12.828125l0 -20.078125l2.25 0l0 1.875q0.78125 -1.09375 1.78125 -1.640625q1.0 -0.5625 2.421875 -0.5625q1.859375 0 3.28125 0.953125q1.421875 0.953125 2.140625 2.703125q0.734375 1.734375 0.734375 3.8125q0 2.234375 -0.796875 4.015625q-0.796875 1.78125 -2.328125 2.734375q-1.53125 0.953125 -3.203125 0.953125q-1.234375 0 -2.21875 -0.515625q-0.96875 -0.53125 -1.59375 -1.3125l0 7.0625l-2.46875 0zm2.234375 -12.734375q0 2.796875 1.125 4.140625q1.140625 1.328125 2.75 1.328125q1.640625 0 2.8125 -1.375q1.171875 -1.390625 1.171875 -4.3125q0 -2.765625 -1.140625 -4.140625q-1.140625 -1.390625 -2.734375 -1.390625q-1.5625 0 -2.78125 1.46875q-1.203125 1.46875 -1.203125 4.28125zm13.353516 -10.046875l0 -2.828125l2.46875 0l0 2.828125l-2.46875 0zm0 17.21875l0 -14.515625l2.46875 0l0 14.515625l-2.46875 0zm15.689453 -5.3125l2.40625 0.3125q-0.390625 2.5 -2.03125 3.921875q-1.625 1.40625 -4.0 1.40625q-2.984375 0 -4.796875 -1.9375q-1.8125 -1.953125 -1.8125 -5.59375q0 -2.359375 0.78125 -4.109375q0.78125 -1.765625 2.375 -2.640625q1.59375 -0.890625 3.46875 -0.890625q2.359375 0 3.859375 1.203125q1.5 1.1875 1.9375 3.390625l-2.40625 0.359375q-0.328125 -1.453125 -1.203125 -2.1875q-0.875 -0.75 -2.09375 -0.75q-1.859375 0 -3.03125 1.34375q-1.15625 1.328125 -1.15625 4.203125q0 2.9375 1.109375 4.265625q1.125 1.3125 2.9375 1.3125q1.453125 0 2.421875 -0.875q0.96875 -0.890625 1.234375 -2.734375zm3.5625 -0.703125l0 -2.46875l7.5625 0l0 2.46875l-7.5625 0zm22.371109 -9.125l-2.4531403 0.203125q-0.328125 -1.453125 -0.921875 -2.109375q-1.0 -1.0625 -2.46875 -1.0625q-1.171875 0 -2.0625 0.65625q-1.15625 0.859375 -1.828125 2.484375q-0.671875 1.625 -0.703125 4.625q0.890625 -1.34375 2.171875 -2.0q1.28125 -0.65625 2.703125 -0.65625q2.453125 0 4.1718903 1.8125q1.734375 1.8125 1.734375 4.671875q0 1.890625 -0.8125 3.515625q-0.8125 1.625 -2.2343903 2.484375q-1.421875 0.859375 -3.21875 0.859375q-3.078125 0 -5.03125 -2.265625q-1.9375 -2.265625 -1.9375 -7.453125q0 -5.8125 2.15625 -8.453125q1.875 -2.296875 5.046875 -2.296875q2.359375 0 3.859375 1.328125q1.5156403 1.328125 1.8281403 3.65625zm-10.04689 8.640625q0 1.28125 0.53125 2.4375q0.546875 1.15625 1.515625 1.765625q0.96875 0.609375 2.03125 0.609375q1.5625 0 2.671875 -1.25q1.125 -1.265625 1.125 -3.421875q0 -2.078125 -1.109375 -3.265625q-1.09375 -1.203125 -2.78125 -1.203125q-1.671875 0 -2.828125 1.203125q-1.15625 1.1875 -1.15625 3.125z" fill-rule="nonzero"/><path fill="#ff0000" d="m410.0363 203.16386l0 0c-2.7826843 -21.160812 6.353363 -42.108734 23.53128 -53.95479c17.177948 -11.846054 39.385193 -12.512695 57.198364 -1.7170563l0 0c6.309967 -12.303772 17.85904 -20.798676 31.15387 -22.915169c13.2948 -2.1165009 26.773865 2.3940048 36.359985 12.167168l0 0c5.375244 -11.155388 15.929749 -18.650383 27.91809 -19.82537c11.988342 -1.1749878 23.71399 4.1363144 31.015991 14.049202l0 0c9.711243 -11.824692 25.162048 -16.803375 39.66681 -12.781754c14.504761 4.0216217 25.458252 16.321228 28.12085 31.576721l0 0c11.897888 3.358261 21.808594 11.895401 27.171509 23.4057c5.362915 11.510315 5.6519165 24.86464 0.79229736 36.612656l0 0c11.716003 15.778885 14.456665 36.804047 7.1992188 55.229263c-7.2573853 18.425232 -23.422546 31.48236 -42.46289 34.298676c-0.13415527 17.292755 -9.299194 33.16034 -23.962463 41.486755c-14.663208 8.326416 -32.534973 7.811432 -46.726624 -1.3464661c-6.044922 20.71106 -23.059326 35.950043 -43.692383 39.13315c-20.633057 3.183136 -41.185852 -6.2602234 -52.77884 -24.250214c-14.210571 8.86731 -31.262115 11.421722 -47.308075 7.086975c-16.04599 -4.334778 -29.734772 -15.1935425 -37.978485 -30.12677l0 0c-14.521454 1.7584229 -28.561676 -6.0269165 -35.152557 -19.492188c-6.5908813 -13.4653015 -4.3294067 -29.74405 5.6620483 -40.757233l0 0c-12.953491 -7.8893127 -19.56314 -23.544327 -16.382263 -38.801575c3.1808472 -15.257248 15.431427 -26.659363 30.363556 -28.260605z" fill-rule="evenodd"/><path fill="#000000" fill-opacity="0.0" d="m395.76797 271.0416l0 0c6.112793 3.722992 13.1744995 5.4118347 20.236969 4.8397827m9.250336 55.41098c3.0371094 -0.36776733 6.0140686 -1.1465759 8.854095 -2.3163147m76.42822 25.355164c-2.1361084 -3.3148193 -3.924591 -6.8569946 -5.3349304 -10.566162m101.809784 -4.317383l0 0c1.1021118 -3.77594 1.8161621 -7.662201 2.130249 -11.593933m68.55621 -28.544922c0.1428833 -18.410767 -9.962463 -35.267883 -25.975464 -43.33069m61.23883 -46.195297c-2.5932617 6.269226 -6.552185 11.830566 -11.566284 16.24797m-16.395142 -76.267975l0 0c0.44189453 2.5316467 0.6463623 5.101349 0.61065674 7.6734924m-68.397095 -26.467697l0 0c-2.4224854 2.9496765 -4.418274 6.2458954 -5.925293 9.786026m-53.0094 -4.011139l0 0c-1.2909546 2.6791687 -2.255005 5.5141907 -2.869812 8.439743m-64.64502 2.308487l0 0c3.7692566 2.2843475 7.256317 5.0338135 10.384613 8.187973m-91.11322 47.48416l0 0c0.3835144 2.916504 0.98950195 5.797058 1.8122559 8.6147" fill-rule="evenodd"/><path stroke="#ff0000" stroke-width="1.0" stroke-linejoin="round" stroke-linecap="butt" d="m410.0363 203.16386l0 0c-2.7826843 -21.160812 6.353363 -42.108734 23.53128 -53.95479c17.177948 -11.846054 39.385193 -12.512695 57.198364 -1.7170563l0 0c6.309967 -12.303772 17.85904 -20.798676 31.15387 -22.915169c13.2948 -2.1165009 26.773865 2.3940048 36.359985 12.167168l0 0c5.375244 -11.155388 15.929749 -18.650383 27.91809 -19.82537c11.988342 -1.1749878 23.71399 4.1363144 31.015991 14.049202l0 0c9.711243 -11.824692 25.162048 -16.803375 39.66681 -12.781754c14.504761 4.0216217 25.458252 16.321228 28.12085 31.576721l0 0c11.897888 3.358261 21.808594 11.895401 27.171509 23.4057c5.362915 11.510315 5.6519165 24.86464 0.79229736 36.612656l0 0c11.716003 15.778885 14.456665 36.804047 7.1992188 55.229263c-7.2573853 18.425232 -23.422546 31.48236 -42.46289 34.298676c-0.13415527 17.292755 -9.299194 33.16034 -23.962463 41.486755c-14.663208 8.326416 -32.534973 7.811432 -46.726624 -1.3464661c-6.044922 20.71106 -23.059326 35.950043 -43.692383 39.13315c-20.633057 3.183136 -41.185852 -6.2602234 -52.77884 -24.250214c-14.210571 8.86731 -31.262115 11.421722 -47.308075 7.086975c-16.04599 -4.334778 -29.734772 -15.1935425 -37.978485 -30.12677l0 0c-14.521454 1.7584229 -28.561676 -6.0269165 -35.152557 -19.492188c-6.5908813 -13.4653015 -4.3294067 -29.74405 5.6620483 -40.757233l0 0c-12.953491 -7.8893127 -19.56314 -23.544327 -16.382263 -38.801575c3.1808472 -15.257248 15.431427 -26.659363 30.363556 -28.260605z" fill-rule="evenodd"/><path stroke="#ff0000" stroke-width="1.0" stroke-linejoin="round" stroke-linecap="butt" d="m395.76797 271.0416l0 0c6.112793 3.722992 13.1744995 5.4118347 20.236969 4.8397827m9.250336 55.41098c3.0371094 -0.36776733 6.0140686 -1.1465759 8.854095 -2.3163147m76.42822 25.355164c-2.1361084 -3.3148193 -3.924591 -6.8569946 -5.3349304 -10.566162m101.809784 -4.317383l0 0c1.1021118 -3.77594 1.8161621 -7.662201 2.130249 -11.593933m68.55621 -28.544922c0.1428833 -18.410767 -9.962463 -35.267883 -25.975464 -43.33069m61.23883 -46.195297c-2.5932617 6.269226 -6.552185 11.830566 -11.566284 16.24797m-16.395142 -76.267975l0 0c0.44189453 2.5316467 0.6463623 5.101349 0.61065674 7.6734924m-68.397095 -26.467697l0 0c-2.4224854 2.9496765 -4.418274 6.2458954 -5.925293 9.786026m-53.0094 -4.011139l0 0c-1.2909546 2.6791687 -2.255005 5.5141907 -2.869812 8.439743m-64.64502 2.308487l0 0c3.7692566 2.2843475 7.256317 5.0338135 10.384613 8.187973m-91.11322 47.48416l0 0c0.3835144 2.916504 0.98950195 5.797058 1.8122559 8.6147" fill-rule="evenodd"/><path fill="#ffffff" d="m442.71124 250.8691l0 -17.671875l-6.609375 0l0 -2.375l15.890625 0l0 2.375l-6.640625 0l0 17.671875l-2.640625 0zm7.671875 -7.265625q0 -4.03125 2.234375 -5.96875q1.875 -1.609375 4.5625 -1.609375q3.0 0 4.890625 1.96875q1.90625 1.953125 1.90625 5.40625q0 2.8125 -0.84375 4.421875q-0.828125 1.59375 -2.4375 2.484375q-1.609375 0.890625 -3.515625 0.890625q-3.046875 0 -4.921875 -1.953125q-1.875 -1.953125 -1.875 -5.640625zm2.515625 0q0 2.796875 1.21875 4.1875q1.21875 1.375 3.0625 1.375q1.84375 0 3.046875 -1.390625q1.21875 -1.390625 1.21875 -4.25q0 -2.6875 -1.21875 -4.078125q-1.21875 -1.390625 -3.046875 -1.390625q-1.84375 0 -3.0625 1.390625q-1.21875 1.375 -1.21875 4.15625zm13.962891 12.82811l0 -20.07811l2.25 0l0 1.875q0.78125 -1.09375 1.78125 -1.640625q1.0 -0.5625 2.421875 -0.5625q1.859375 0 3.28125 0.953125q1.421875 0.953125 2.140625 2.703125q0.734375 1.734375 0.734375 3.8125q0 2.234375 -0.796875 4.015625q-0.796875 1.78125 -2.328125 2.734375q-1.53125 0.953125 -3.203125 0.953125q-1.234375 0 -2.21875 -0.515625q-0.96875 -0.53125 -1.59375 -1.3125l0 7.0624847l-2.46875 0zm2.234375 -12.73436q0 2.796875 1.125 4.140625q1.140625 1.328125 2.75 1.328125q1.640625 0 2.8125 -1.375q1.171875 -1.390625 1.171875 -4.3125q0 -2.765625 -1.140625 -4.140625q-1.140625 -1.390625 -2.734375 -1.390625q-1.5625 0 -2.78125 1.46875q-1.203125 1.46875 -1.203125 4.28125zm13.353516 -10.046875l0 -2.828125l2.46875 0l0 2.828125l-2.46875 0zm0 17.21875l0 -14.515625l2.46875 0l0 14.515625l-2.46875 0zm15.689453 -5.3125l2.40625 0.3125q-0.390625 2.5 -2.03125 3.921875q-1.625 1.40625 -4.0 1.40625q-2.984375 0 -4.796875 -1.9375q-1.8125 -1.953125 -1.8125 -5.59375q0 -2.359375 0.78125 -4.109375q0.78125 -1.765625 2.375 -2.640625q1.59375 -0.890625 3.46875 -0.890625q2.359375 0 3.859375 1.203125q1.5 1.1875 1.9375 3.390625l-2.40625 0.359375q-0.328125 -1.453125 -1.203125 -2.1875q-0.875 -0.75 -2.09375 -0.75q-1.859375 0 -3.03125 1.34375q-1.15625 1.328125 -1.15625 4.203125q0 2.9375 1.109375 4.265625q1.125 1.3125 2.9375 1.3125q1.453125 0 2.421875 -0.875q0.96875 -0.890625 1.234375 -2.734375zm3.5625 -0.703125l0 -2.46875l7.5625 0l0 2.46875l-7.5625 0zm9.589844 0.765625l2.59375 -0.21875q0.28125 1.890625 1.328125 2.84375q1.046875 0.9375 2.53125 0.9375q1.765625 0 3.0 -1.328125q1.234375 -1.34375 1.234375 -3.5625q0 -2.109375 -1.1875 -3.3125q-1.1875 -1.21875 -3.09375 -1.21875q-1.1875 0 -2.15625 0.546875q-0.953125 0.53125 -1.5 1.390625l-2.3125 -0.296875l1.953125 -10.296875l9.96875 0l0 2.34375l-8.0 0l-1.078125 5.390625q1.796875 -1.265625 3.78125 -1.265625q2.625 0 4.421875 1.828125q1.8125 1.8125 1.8125 4.671875q0 2.71875 -1.59375 4.703125q-1.921875 2.4375 -5.25 2.4375q-2.734375 0 -4.46875 -1.53125q-1.734375 -1.53125 -1.984375 -4.0625z" fill-rule="nonzero"/><path fill="#b45f06" d="m308.08353 337.6783l0 0c-2.7826538 -21.160828 6.353363 -42.108734 23.53128 -53.954803c17.177948 -11.846039 39.385193 -12.512695 57.198364 -1.717041l0 0c6.309967 -12.303772 17.85904 -20.798706 31.15387 -22.915192c13.29483 -2.1164856 26.773865 2.3940125 36.359985 12.167175l0 0c5.3752747 -11.1553955 15.929718 -18.65039 27.91809 -19.825378c11.988373 -1.1749878 23.71399 4.136322 31.016052 14.049194l0 0c9.711182 -11.8246765 25.161987 -16.80336 39.666748 -12.781738c14.504761 4.021637 25.458252 16.321228 28.12085 31.576721l0 0c11.897888 3.3582458 21.808594 11.895416 27.171509 23.4057c5.362915 11.510315 5.6519165 24.864655 0.79229736 36.61267l0 0c11.716003 15.77887 14.456665 36.804016 7.1992188 55.229248c-7.2573853 18.425232 -23.422546 31.48236 -42.46289 34.298676c-0.13415527 17.292755 -9.299194 33.16034 -23.962463 41.486755c-14.663208 8.326416 -32.534973 7.811432 -46.726654 -1.3464661c-6.0448914 20.71106 -23.059296 35.950043 -43.692352 39.13315c-20.633026 3.1831665 -41.18582 -6.2602234 -52.77884 -24.250214c-14.210571 8.86731 -31.262115 11.421722 -47.308075 7.086975c-16.04599 -4.334778 -29.734772 -15.1935425 -37.978485 -30.12677l0 0c-14.521423 1.7584229 -28.561646 -6.0269165 -35.152557 -19.492188c-6.5908813 -13.4653015 -4.3294067 -29.74405 5.6620483 -40.757233l0 0c-12.953491 -7.8893127 -19.56314 -23.544342 -16.382263 -38.801575c3.1808472 -15.257233 15.431427 -26.659363 30.363556 -28.26062z" fill-rule="evenodd"/><path fill="#000000" fill-opacity="0.0" d="m293.81522 405.55603l0 0c6.112793 3.722992 13.1744995 5.4118347 20.236969 4.8397827m9.250336 55.41098c3.0371094 -0.36776733 6.0140686 -1.1465759 8.854095 -2.3163147m76.42822 25.355164c-2.1361084 -3.3148193 -3.924591 -6.8569946 -5.3349304 -10.566162m101.809814 -4.317383l0 0c1.1020813 -3.77594 1.8161316 -7.662201 2.130249 -11.593933m68.55618 -28.544922c0.1428833 -18.410767 -9.962463 -35.267883 -25.975464 -43.33069m61.23883 -46.195282c-2.5932617 6.2691956 -6.552185 11.830536 -11.566284 16.247955m-16.395142 -76.267975l0 0c0.44189453 2.5316467 0.6463623 5.101349 0.61065674 7.6734924m-68.397095 -26.467682l0 0c-2.4224854 2.949646 -4.418274 6.24588 -5.9252625 9.786011m-53.00943 -4.011139l0 0c-1.2909851 2.6791687 -2.2549744 5.5141907 -2.8698425 8.439758m-64.64499 2.3084717l0 0c3.7692566 2.2843323 7.256317 5.0338135 10.384613 8.187988m-91.11322 47.48416l0 0c0.3835144 2.916504 0.98950195 5.797058 1.8122864 8.614685" fill-rule="evenodd"/><path stroke="#b45f06" stroke-width="1.0" stroke-linejoin="round" stroke-linecap="butt" d="m308.08353 337.6783l0 0c-2.7826538 -21.160828 6.353363 -42.108734 23.53128 -53.954803c17.177948 -11.846039 39.385193 -12.512695 57.198364 -1.717041l0 0c6.309967 -12.303772 17.85904 -20.798706 31.15387 -22.915192c13.29483 -2.1164856 26.773865 2.3940125 36.359985 12.167175l0 0c5.3752747 -11.1553955 15.929718 -18.65039 27.91809 -19.825378c11.988373 -1.1749878 23.71399 4.136322 31.016052 14.049194l0 0c9.711182 -11.8246765 25.161987 -16.80336 39.666748 -12.781738c14.504761 4.021637 25.458252 16.321228 28.12085 31.576721l0 0c11.897888 3.3582458 21.808594 11.895416 27.171509 23.4057c5.362915 11.510315 5.6519165 24.864655 0.79229736 36.61267l0 0c11.716003 15.77887 14.456665 36.804016 7.1992188 55.229248c-7.2573853 18.425232 -23.422546 31.48236 -42.46289 34.298676c-0.13415527 17.292755 -9.299194 33.16034 -23.962463 41.486755c-14.663208 8.326416 -32.534973 7.811432 -46.726654 -1.3464661c-6.0448914 20.71106 -23.059296 35.950043 -43.692352 39.13315c-20.633026 3.1831665 -41.18582 -6.2602234 -52.77884 -24.250214c-14.210571 8.86731 -31.262115 11.421722 -47.308075 7.086975c-16.04599 -4.334778 -29.734772 -15.1935425 -37.978485 -30.12677l0 0c-14.521423 1.7584229 -28.561646 -6.0269165 -35.152557 -19.492188c-6.5908813 -13.4653015 -4.3294067 -29.74405 5.6620483 -40.757233l0 0c-12.953491 -7.8893127 -19.56314 -23.544342 -16.382263 -38.801575c3.1808472 -15.257233 15.431427 -26.659363 30.363556 -28.26062z" fill-rule="evenodd"/><path stroke="#b45f06" stroke-width="1.0" stroke-linejoin="round" stroke-linecap="butt" d="m293.81522 405.55603l0 0c6.112793 3.722992 13.1744995 5.4118347 20.236969 4.8397827m9.250336 55.41098c3.0371094 -0.36776733 6.0140686 -1.1465759 8.854095 -2.3163147m76.42822 25.355164c-2.1361084 -3.3148193 -3.924591 -6.8569946 -5.3349304 -10.566162m101.809814 -4.317383l0 0c1.1020813 -3.77594 1.8161316 -7.662201 2.130249 -11.593933m68.55618 -28.544922c0.1428833 -18.410767 -9.962463 -35.267883 -25.975464 -43.33069m61.23883 -46.195282c-2.5932617 6.2691956 -6.552185 11.830536 -11.566284 16.247955m-16.395142 -76.267975l0 0c0.44189453 2.5316467 0.6463623 5.101349 0.61065674 7.6734924m-68.397095 -26.467682l0 0c-2.4224854 2.949646 -4.418274 6.24588 -5.9252625 9.786011m-53.00943 -4.011139l0 0c-1.2909851 2.6791687 -2.2549744 5.5141907 -2.8698425 8.439758m-64.64499 2.3084717l0 0c3.7692566 2.2843323 7.256317 5.0338135 10.384613 8.187988m-91.11322 47.48416l0 0c0.3835144 2.916504 0.98950195 5.797058 1.8122864 8.614685" fill-rule="evenodd"/><path fill="#ffffff" d="m340.7585 385.3835l0 -17.671875l-6.609375 0l0 -2.375l15.890625 0l0 2.375l-6.640625 0l0 17.671875l-2.640625 0zm7.671875 -7.265625q0 -4.03125 2.234375 -5.96875q1.875 -1.609375 4.5625 -1.609375q3.0 0 4.890625 1.96875q1.90625 1.953125 1.90625 5.40625q0 2.8125 -0.84375 4.421875q-0.828125 1.59375 -2.4375 2.484375q-1.609375 0.890625 -3.515625 0.890625q-3.046875 0 -4.921875 -1.953125q-1.875 -1.953125 -1.875 -5.640625zm2.515625 0q0 2.796875 1.21875 4.1875q1.21875 1.375 3.0625 1.375q1.84375 0 3.046875 -1.390625q1.21875 -1.390625 1.21875 -4.25q0 -2.6875 -1.21875 -4.078125q-1.21875 -1.390625 -3.046875 -1.390625q-1.84375 0 -3.0625 1.390625q-1.21875 1.375 -1.21875 4.15625zm13.962891 12.828125l0 -20.078125l2.25 0l0 1.875q0.78125 -1.09375 1.78125 -1.640625q1.0 -0.5625 2.421875 -0.5625q1.859375 0 3.28125 0.953125q1.421875 0.953125 2.140625 2.703125q0.734375 1.734375 0.734375 3.8125q0 2.234375 -0.796875 4.015625q-0.796875 1.78125 -2.328125 2.734375q-1.53125 0.953125 -3.203125 0.953125q-1.234375 0 -2.21875 -0.515625q-0.96875 -0.53125 -1.59375 -1.3125l0 7.0625l-2.46875 0zm2.234375 -12.734375q0 2.796875 1.125 4.140625q1.140625 1.328125 2.75 1.328125q1.640625 0 2.8125 -1.375q1.171875 -1.390625 1.171875 -4.3125q0 -2.765625 -1.140625 -4.140625q-1.140625 -1.390625 -2.734375 -1.390625q-1.5625 0 -2.78125 1.46875q-1.203125 1.46875 -1.203125 4.28125zm13.353516 -10.046875l0 -2.828125l2.46875 0l0 2.828125l-2.46875 0zm0 17.21875l0 -14.515625l2.46875 0l0 14.515625l-2.46875 0zm15.689453 -5.3125l2.40625 0.3125q-0.390625 2.5 -2.03125 3.921875q-1.625 1.40625 -4.0 1.40625q-2.984375 0 -4.796875 -1.9375q-1.8125 -1.953125 -1.8125 -5.59375q0 -2.359375 0.78125 -4.109375q0.78125 -1.765625 2.375 -2.640625q1.59375 -0.890625 3.46875 -0.890625q2.359375 0 3.859375 1.203125q1.5 1.1875 1.9375 3.390625l-2.40625 0.359375q-0.328125 -1.453125 -1.203125 -2.1875q-0.875 -0.75 -2.09375 -0.75q-1.859375 0 -3.03125 1.34375q-1.15625 1.328125 -1.15625 4.203125q0 2.9375 1.109375 4.265625q1.125 1.3125 2.9375 1.3125q1.453125 0 2.421875 -0.875q0.96875 -0.890625 1.234375 -2.734375zm3.5625 -0.703125l0 -2.46875l7.5625 0l0 2.46875l-7.5625 0zm22.527344 3.65625l0 2.359375l-13.25 0q-0.015625 -0.890625 0.296875 -1.703125q0.5 -1.359375 1.609375 -2.671875q1.125 -1.3125 3.21875 -3.03125q3.28125 -2.6875 4.421875 -4.25q1.15625 -1.5625 1.15625 -2.953125q0 -1.46875 -1.046875 -2.46875q-1.046875 -1.015625 -2.734375 -1.015625q-1.78125 0 -2.84375 1.078125q-1.0625 1.0625 -1.078125 2.953125l-2.53125 -0.265625q0.265625 -2.828125 1.953125 -4.3125q1.703125 -1.484375 4.5625 -1.484375q2.875 0 4.546875 1.609375q1.6875 1.59375 1.6875 3.953125q0 1.203125 -0.5 2.375q-0.484375 1.15625 -1.625 2.4375q-1.140625 1.28125 -3.78125 3.53125q-2.21875 1.859375 -2.859375 2.53125q-0.625 0.65625 -1.03125 1.328125l9.828125 0z" fill-rule="nonzero"/><path fill="#274e13" d="m352.17538 482.23737l0 0c-2.7826538 -21.160828 6.353363 -42.108734 23.531311 -53.954803c17.177948 -11.846039 39.385162 -12.512695 57.198334 -1.717041l0 0c6.309967 -12.303772 17.85904 -20.798676 31.15387 -22.915192c13.29483 -2.1164856 26.773865 2.3940125 36.359985 12.167175l0 0c5.3752747 -11.1553955 15.929749 -18.65039 27.91809 -19.825378c11.988403 -1.1749878 23.71399 4.136322 31.016052 14.049225l0 0c9.711182 -11.824707 25.162048 -16.803375 39.666748 -12.781769c14.504761 4.021637 25.458252 16.321228 28.12085 31.576721l0 0c11.897888 3.3582764 21.808594 11.895416 27.171509 23.4057c5.362915 11.510315 5.6519165 24.864655 0.7923584 36.61267l0 0c11.715942 15.77887 14.456604 36.804016 7.1991577 55.229248c-7.2573853 18.425232 -23.422546 31.48236 -42.46283 34.298706c-0.13421631 17.292725 -9.299255 33.16034 -23.962463 41.486755c-14.663269 8.326355 -32.535034 7.8114014 -46.726685 -1.3464966c-6.044922 20.71106 -23.059326 35.950012 -43.692383 39.13318c-20.633026 3.1831055 -41.18582 -6.260254 -52.77884 -24.250244c-14.210571 8.86731 -31.262085 11.421692 -47.308075 7.086975c-16.04599 -4.334778 -29.734772 -15.1935425 -37.978485 -30.12677l0 0c-14.521423 1.7584229 -28.561646 -6.0269165 -35.152557 -19.492188c-6.5908813 -13.465271 -4.3294067 -29.74408 5.662079 -40.757263l0 0c-12.953491 -7.889282 -19.563171 -23.544312 -16.382294 -38.801544c3.1808472 -15.257233 15.4314575 -26.659363 30.363556 -28.26059z" fill-rule="evenodd"/><path fill="#000000" fill-opacity="0.0" d="m337.90707 550.1151l0 0c6.112793 3.7229614 13.1744995 5.411804 20.236969 4.8397217m9.250336 55.41101c3.03714 -0.36773682 6.014099 -1.1465454 8.854095 -2.3162842m76.42822 25.355164c-2.1361084 -3.3148193 -3.924591 -6.8569946 -5.3349304 -10.566162m101.809845 -4.317444l0 0c1.1020508 -3.775879 1.8161011 -7.6621704 2.130188 -11.593872m68.556274 -28.544922c0.14282227 -18.410828 -9.962524 -35.267883 -25.975525 -43.33069m61.23883 -46.195312c-2.5932617 6.269226 -6.552124 11.830536 -11.566284 16.247955m-16.395142 -76.267975l0 0c0.44189453 2.5316467 0.6463623 5.101349 0.61065674 7.6734924m-68.397095 -26.467682l0 0c-2.4224854 2.9496765 -4.418274 6.24588 -5.925232 9.786011m-53.00946 -4.011139l0 0c-1.2909546 2.6791687 -2.2549744 5.5141907 -2.869812 8.439758m-64.64502 2.3084717l0 0c3.7692566 2.2843628 7.256317 5.0338135 10.384613 8.187988m-91.11322 47.48416l0 0c0.3835144 2.916504 0.98950195 5.797058 1.8122864 8.614685" fill-rule="evenodd"/><path stroke="#38761d" stroke-width="1.0" stroke-linejoin="round" stroke-linecap="butt" d="m352.17538 482.23737l0 0c-2.7826538 -21.160828 6.353363 -42.108734 23.531311 -53.954803c17.177948 -11.846039 39.385162 -12.512695 57.198334 -1.717041l0 0c6.309967 -12.303772 17.85904 -20.798676 31.15387 -22.915192c13.29483 -2.1164856 26.773865 2.3940125 36.359985 12.167175l0 0c5.3752747 -11.1553955 15.929749 -18.65039 27.91809 -19.825378c11.988403 -1.1749878 23.71399 4.136322 31.016052 14.049225l0 0c9.711182 -11.824707 25.162048 -16.803375 39.666748 -12.781769c14.504761 4.021637 25.458252 16.321228 28.12085 31.576721l0 0c11.897888 3.3582764 21.808594 11.895416 27.171509 23.4057c5.362915 11.510315 5.6519165 24.864655 0.7923584 36.61267l0 0c11.715942 15.77887 14.456604 36.804016 7.1991577 55.229248c-7.2573853 18.425232 -23.422546 31.48236 -42.46283 34.298706c-0.13421631 17.292725 -9.299255 33.16034 -23.962463 41.486755c-14.663269 8.326355 -32.535034 7.8114014 -46.726685 -1.3464966c-6.044922 20.71106 -23.059326 35.950012 -43.692383 39.13318c-20.633026 3.1831055 -41.18582 -6.260254 -52.77884 -24.250244c-14.210571 8.86731 -31.262085 11.421692 -47.308075 7.086975c-16.04599 -4.334778 -29.734772 -15.1935425 -37.978485 -30.12677l0 0c-14.521423 1.7584229 -28.561646 -6.0269165 -35.152557 -19.492188c-6.5908813 -13.465271 -4.3294067 -29.74408 5.662079 -40.757263l0 0c-12.953491 -7.889282 -19.563171 -23.544312 -16.382294 -38.801544c3.1808472 -15.257233 15.4314575 -26.659363 30.363556 -28.26059z" fill-rule="evenodd"/><path stroke="#38761d" stroke-width="1.0" stroke-linejoin="round" stroke-linecap="butt" d="m337.90707 550.1151l0 0c6.112793 3.7229614 13.1744995 5.411804 20.236969 4.8397217m9.250336 55.41101c3.03714 -0.36773682 6.014099 -1.1465454 8.854095 -2.3162842m76.42822 25.355164c-2.1361084 -3.3148193 -3.924591 -6.8569946 -5.3349304 -10.566162m101.809845 -4.317444l0 0c1.1020508 -3.775879 1.8161011 -7.6621704 2.130188 -11.593872m68.556274 -28.544922c0.14282227 -18.410828 -9.962524 -35.267883 -25.975525 -43.33069m61.23883 -46.195312c-2.5932617 6.269226 -6.552124 11.830536 -11.566284 16.247955m-16.395142 -76.267975l0 0c0.44189453 2.5316467 0.6463623 5.101349 0.61065674 7.6734924m-68.397095 -26.467682l0 0c-2.4224854 2.9496765 -4.418274 6.24588 -5.925232 9.786011m-53.00946 -4.011139l0 0c-1.2909546 2.6791687 -2.2549744 5.5141907 -2.869812 8.439758m-64.64502 2.3084717l0 0c3.7692566 2.2843628 7.256317 5.0338135 10.384613 8.187988m-91.11322 47.48416l0 0c0.3835144 2.916504 0.98950195 5.797058 1.8122864 8.614685" fill-rule="evenodd"/><path fill="#ffffff" d="m384.85037 529.94257l0 -17.671875l-6.609375 0l0 -2.3749695l15.890625 0l0 2.3749695l-6.640625 0l0 17.671875l-2.640625 0zm7.671875 -7.265625q0 -4.03125 2.234375 -5.96875q1.875 -1.609375 4.5625 -1.609375q3.0 0 4.890625 1.96875q1.90625 1.953125 1.90625 5.40625q0 2.8125 -0.84375 4.421875q-0.828125 1.59375 -2.4375 2.484375q-1.609375 0.890625 -3.515625 0.890625q-3.046875 0 -4.921875 -1.953125q-1.875 -1.953125 -1.875 -5.640625zm2.515625 0q0 2.796875 1.21875 4.1875q1.21875 1.375 3.0625 1.375q1.84375 0 3.046875 -1.390625q1.21875 -1.390625 1.21875 -4.25q0 -2.6875 -1.21875 -4.078125q-1.21875 -1.390625 -3.046875 -1.390625q-1.84375 0 -3.0625 1.390625q-1.21875 1.375 -1.21875 4.15625zm13.962891 12.828125l0 -20.078125l2.25 0l0 1.875q0.78125 -1.09375 1.78125 -1.640625q1.0 -0.5625 2.421875 -0.5625q1.859375 0 3.28125 0.953125q1.421875 0.953125 2.140625 2.703125q0.734375 1.734375 0.734375 3.8125q0 2.234375 -0.796875 4.015625q-0.796875 1.78125 -2.328125 2.734375q-1.53125 0.953125 -3.203125 0.953125q-1.234375 0 -2.21875 -0.515625q-0.96875 -0.53125 -1.59375 -1.3125l0 7.0625l-2.46875 0zm2.234375 -12.734375q0 2.796875 1.125 4.140625q1.140625 1.328125 2.75 1.328125q1.640625 0 2.8125 -1.375q1.171875 -1.390625 1.171875 -4.3125q0 -2.765625 -1.140625 -4.140625q-1.140625 -1.390625 -2.734375 -1.390625q-1.5625 0 -2.78125 1.46875q-1.203125 1.46875 -1.203125 4.28125zm13.353516 -10.046875l0 -2.8280945l2.46875 0l0 2.8280945l-2.46875 0zm0 17.21875l0 -14.515625l2.46875 0l0 14.515625l-2.46875 0zm15.689453 -5.3125l2.40625 0.3125q-0.390625 2.5 -2.03125 3.921875q-1.625 1.40625 -4.0 1.40625q-2.984375 0 -4.796875 -1.9375q-1.8125 -1.953125 -1.8125 -5.59375q0 -2.359375 0.78125 -4.109375q0.78125 -1.765625 2.375 -2.640625q1.59375 -0.890625 3.46875 -0.890625q2.359375 0 3.859375 1.203125q1.5 1.1875 1.9375 3.390625l-2.40625 0.359375q-0.328125 -1.453125 -1.203125 -2.1875q-0.875 -0.75 -2.09375 -0.75q-1.859375 0 -3.03125 1.34375q-1.15625 1.328125 -1.15625 4.203125q0 2.9375 1.109375 4.265625q1.125 1.3125 2.9375 1.3125q1.453125 0 2.421875 -0.875q0.96875 -0.890625 1.234375 -2.734375zm3.5625 -0.703125l0 -2.46875l7.5625 0l0 2.46875l-7.5625 0zm9.605469 0.71875l2.46875 -0.328125q0.421875 2.09375 1.4375 3.015625q1.015625 0.921875 2.484375 0.921875q1.734375 0 2.921875 -1.203125q1.203125 -1.203125 1.203125 -2.96875q0 -1.703125 -1.109375 -2.796875q-1.109375 -1.109375 -2.8125 -1.109375q-0.703125 0 -1.734375 0.28125l0.265625 -2.171875q0.25 0.03125 0.40625 0.03125q1.5625 0 2.8125 -0.8125q1.265625 -0.828125 1.265625 -2.53125q0 -1.359375 -0.921875 -2.25q-0.90625 -0.8905945 -2.359375 -0.8905945q-1.421875 0 -2.390625 0.9062195q-0.953125 0.90625 -1.21875 2.703125l-2.46875 -0.4375q0.453125 -2.46875 2.046875 -3.8280945q1.609375 -1.359375 3.984375 -1.359375q1.640625 0 3.015625 0.703125q1.390625 0.703125 2.109375 1.9218445q0.734375 1.21875 0.734375 2.578125q0 1.296875 -0.703125 2.375q-0.6875 1.0625 -2.046875 1.6875q1.765625 0.40625 2.75 1.703125q0.984375 1.296875 0.984375 3.234375q0 2.625 -1.921875 4.453125q-1.90625 1.828125 -4.828125 1.828125q-2.640625 0 -4.390625 -1.578125q-1.734375 -1.578125 -1.984375 -4.078125z" fill-rule="nonzero"/><path fill="#5b0f00" d="m566.5035 317.76755l0 0c-2.7826538 -21.160828 6.3533325 -42.108734 23.531311 -53.954803c17.177917 -11.846039 39.38513 -12.512695 57.198303 -1.717041l0 0c6.3099976 -12.303772 17.85907 -20.79869 31.15387 -22.915176c13.294861 -2.1165009 26.773926 2.3940125 36.359985 12.167175l0 0c5.375305 -11.1553955 15.929749 -18.65039 27.918152 -19.825378c11.988342 -1.1749878 23.71399 4.136322 31.015991 14.049194l0 0c9.711243 -11.824692 25.162048 -16.803375 39.66681 -12.781754c14.5047 4.0216217 25.45819 16.321243 28.120789 31.576721l0 0c11.897949 3.3582764 21.808655 11.895416 27.171509 23.4057c5.362915 11.510315 5.6519165 24.864655 0.7923584 36.61267l0 0c11.715942 15.77887 14.456604 36.804047 7.1992188 55.229248c-7.2574463 18.425232 -23.422546 31.48236 -42.46289 34.298676c-0.13421631 17.292755 -9.299255 33.16037 -23.962463 41.486755c-14.663269 8.326416 -32.534973 7.811432 -46.726685 -1.3464661c-6.044922 20.71106 -23.059326 35.950043 -43.69232 39.13318c-20.633057 3.1831055 -41.185852 -6.260254 -52.77887 -24.250244c-14.210571 8.86734 -31.262085 11.421722 -47.308105 7.086975c-16.04596 -4.3347473 -29.734741 -15.193512 -37.978455 -30.12677l0 0c-14.521423 1.7584229 -28.561646 -6.0269165 -35.152588 -19.492188c-6.5908813 -13.465271 -4.3294067 -29.74405 5.6621094 -40.757233l0 0c-12.953491 -7.8893127 -19.563171 -23.544342 -16.382324 -38.801575c3.1809082 -15.257233 15.4314575 -26.659363 30.363586 -28.26059z" fill-rule="evenodd"/><path fill="#000000" fill-opacity="0.0" d="m552.23517 385.6453l0 0c6.112793 3.722992 13.1744995 5.411804 20.236938 4.839752m9.250366 55.41101c3.0371094 -0.36779785 6.014099 -1.1465759 8.854126 -2.3163452m76.42816 25.355164c-2.1361084 -3.3148193 -3.9245605 -6.8569946 -5.3349 -10.566162m101.809814 -4.317383l0 0c1.1020508 -3.77594 1.8161011 -7.6621704 2.130249 -11.593933m68.55621 -28.544891c0.1428833 -18.410797 -9.962463 -35.267914 -25.975525 -43.33072m61.23883 -46.195282c-2.5932617 6.269226 -6.552124 11.830566 -11.566284 16.247955m-16.39508 -76.267975l0 0c0.4418335 2.5316467 0.64630127 5.101349 0.6105957 7.6734924m-68.397095 -26.467697l0 0c-2.4224854 2.9496765 -4.418274 6.2458954 -5.925232 9.786026m-53.00946 -4.0111237l0 0c-1.2909546 2.6791534 -2.2549438 5.5141754 -2.869812 8.439743m-64.64502 2.3084717l0 0c3.769287 2.2843628 7.2563477 5.0338135 10.384644 8.187988m-91.11322 47.48416l0 0c0.3834839 2.916504 0.98950195 5.797058 1.8122559 8.614685" fill-rule="evenodd"/><path stroke="#660000" stroke-width="1.0" stroke-linejoin="round" stroke-linecap="butt" d="m566.5035 317.76755l0 0c-2.7826538 -21.160828 6.3533325 -42.108734 23.531311 -53.954803c17.177917 -11.846039 39.38513 -12.512695 57.198303 -1.717041l0 0c6.3099976 -12.303772 17.85907 -20.79869 31.15387 -22.915176c13.294861 -2.1165009 26.773926 2.3940125 36.359985 12.167175l0 0c5.375305 -11.1553955 15.929749 -18.65039 27.918152 -19.825378c11.988342 -1.1749878 23.71399 4.136322 31.015991 14.049194l0 0c9.711243 -11.824692 25.162048 -16.803375 39.66681 -12.781754c14.5047 4.0216217 25.45819 16.321243 28.120789 31.576721l0 0c11.897949 3.3582764 21.808655 11.895416 27.171509 23.4057c5.362915 11.510315 5.6519165 24.864655 0.7923584 36.61267l0 0c11.715942 15.77887 14.456604 36.804047 7.1992188 55.229248c-7.2574463 18.425232 -23.422546 31.48236 -42.46289 34.298676c-0.13421631 17.292755 -9.299255 33.16037 -23.962463 41.486755c-14.663269 8.326416 -32.534973 7.811432 -46.726685 -1.3464661c-6.044922 20.71106 -23.059326 35.950043 -43.69232 39.13318c-20.633057 3.1831055 -41.185852 -6.260254 -52.77887 -24.250244c-14.210571 8.86734 -31.262085 11.421722 -47.308105 7.086975c-16.04596 -4.3347473 -29.734741 -15.193512 -37.978455 -30.12677l0 0c-14.521423 1.7584229 -28.561646 -6.0269165 -35.152588 -19.492188c-6.5908813 -13.465271 -4.3294067 -29.74405 5.6621094 -40.757233l0 0c-12.953491 -7.8893127 -19.563171 -23.544342 -16.382324 -38.801575c3.1809082 -15.257233 15.4314575 -26.659363 30.363586 -28.26059z" fill-rule="evenodd"/><path stroke="#660000" stroke-width="1.0" stroke-linejoin="round" stroke-linecap="butt" d="m552.23517 385.6453l0 0c6.112793 3.722992 13.1744995 5.411804 20.236938 4.839752m9.250366 55.41101c3.0371094 -0.36779785 6.014099 -1.1465759 8.854126 -2.3163452m76.42816 25.355164c-2.1361084 -3.3148193 -3.9245605 -6.8569946 -5.3349 -10.566162m101.809814 -4.317383l0 0c1.1020508 -3.77594 1.8161011 -7.6621704 2.130249 -11.593933m68.55621 -28.544891c0.1428833 -18.410797 -9.962463 -35.267914 -25.975525 -43.33072m61.23883 -46.195282c-2.5932617 6.269226 -6.552124 11.830566 -11.566284 16.247955m-16.39508 -76.267975l0 0c0.4418335 2.5316467 0.64630127 5.101349 0.6105957 7.6734924m-68.397095 -26.467697l0 0c-2.4224854 2.9496765 -4.418274 6.2458954 -5.925232 9.786026m-53.00946 -4.0111237l0 0c-1.2909546 2.6791534 -2.2549438 5.5141754 -2.869812 8.439743m-64.64502 2.3084717l0 0c3.769287 2.2843628 7.2563477 5.0338135 10.384644 8.187988m-91.11322 47.48416l0 0c0.3834839 2.916504 0.98950195 5.797058 1.8122559 8.614685" fill-rule="evenodd"/><path fill="#ffffff" d="m599.17847 365.47278l0 -17.671875l-6.609375 0l0 -2.375l15.890625 0l0 2.375l-6.640625 0l0 17.671875l-2.640625 0zm7.671875 -7.265625q0 -4.03125 2.234375 -5.96875q1.875 -1.609375 4.5625 -1.609375q3.0 0 4.890625 1.96875q1.90625 1.953125 1.90625 5.40625q0 2.8125 -0.84375 4.421875q-0.828125 1.59375 -2.4375 2.484375q-1.609375 0.890625 -3.515625 0.890625q-3.046875 0 -4.921875 -1.953125q-1.875 -1.953125 -1.875 -5.640625zm2.515625 0q0 2.796875 1.21875 4.1875q1.21875 1.375 3.0625 1.375q1.84375 0 3.046875 -1.390625q1.21875 -1.390625 1.21875 -4.25q0 -2.6875 -1.21875 -4.078125q-1.21875 -1.390625 -3.046875 -1.390625q-1.84375 0 -3.0625 1.390625q-1.21875 1.375 -1.21875 4.15625zm13.962891 12.828125l0 -20.078125l2.25 0l0 1.875q0.78125 -1.09375 1.78125 -1.640625q1.0 -0.5625 2.421875 -0.5625q1.859375 0 3.28125 0.953125q1.421875 0.953125 2.140625 2.703125q0.734375 1.734375 0.734375 3.8125q0 2.234375 -0.796875 4.015625q-0.796875 1.78125 -2.328125 2.734375q-1.53125 0.953125 -3.203125 0.953125q-1.234375 0 -2.21875 -0.515625q-0.96875 -0.53125 -1.59375 -1.3125l0 7.0625l-2.46875 0zm2.234375 -12.734375q0 2.796875 1.125 4.140625q1.140625 1.328125 2.75 1.328125q1.640625 0 2.8125 -1.375q1.171875 -1.390625 1.171875 -4.3125q0 -2.765625 -1.140625 -4.140625q-1.140625 -1.390625 -2.734375 -1.390625q-1.5625 0 -2.78125 1.46875q-1.203125 1.46875 -1.203125 4.28125zm13.353516 -10.046875l0 -2.828125l2.46875 0l0 2.828125l-2.46875 0zm0 17.21875l0 -14.515625l2.46875 0l0 14.515625l-2.46875 0zm15.689453 -5.3125l2.40625 0.3125q-0.390625 2.5 -2.03125 3.921875q-1.625 1.40625 -4.0 1.40625q-2.984375 0 -4.796875 -1.9375q-1.8125 -1.953125 -1.8125 -5.59375q0 -2.359375 0.78125 -4.109375q0.78125 -1.765625 2.375 -2.640625q1.59375 -0.890625 3.46875 -0.890625q2.359375 0 3.859375 1.203125q1.5 1.1875 1.9375 3.390625l-2.40625 0.359375q-0.328125 -1.453125 -1.203125 -2.1875q-0.875 -0.75 -2.09375 -0.75q-1.859375 0 -3.03125 1.34375q-1.15625 1.328125 -1.15625 4.203125q0 2.9375 1.109375 4.265625q1.125 1.3125 2.9375 1.3125q1.453125 0 2.421875 -0.875q0.96875 -0.890625 1.234375 -2.734375zm3.5625 -0.703125l0 -2.46875l7.5625 0l0 2.46875l-7.5625 0zm17.480469 6.015625l0 -4.796875l-8.6875 0l0 -2.265625l9.140625 -12.984375l2.015625 0l0 12.984375l2.703125 0l0 2.265625l-2.703125 0l0 4.796875l-2.46875 0zm0 -7.0625l0 -9.03125l-6.265625 9.03125l6.265625 0z" fill-rule="nonzero"/><path fill="#000000" fill-opacity="0.0" d="m118.04199 286.1601l314.96063 0l0 314.96063l-314.96063 0z" fill-rule="evenodd"/><path fill="#ffffff" d="m134.30762 322.0401l0 -17.671875l-6.609375 0l0 -2.375l15.890625 0l0 2.375l-6.640625 0l0 17.671875l-2.640625 0zm7.671875 -7.265625q0 -4.03125 2.234375 -5.96875q1.875 -1.609375 4.5625 -1.609375q3.0 0 4.890625 1.96875q1.90625 1.953125 1.90625 5.40625q0 2.8125 -0.84375 4.421875q-0.828125 1.59375 -2.4375 2.484375q-1.609375 0.890625 -3.515625 0.890625q-3.046875 0 -4.921875 -1.953125q-1.875 -1.953125 -1.875 -5.640625zm2.515625 0q0 2.796875 1.21875 4.1875q1.21875 1.375 3.0625 1.375q1.84375 0 3.046875 -1.390625q1.21875 -1.390625 1.21875 -4.25q0 -2.6875 -1.21875 -4.078125q-1.21875 -1.390625 -3.046875 -1.390625q-1.84375 0 -3.0625 1.390625q-1.21875 1.375 -1.21875 4.15625zm13.962891 12.828125l0 -20.078125l2.25 0l0 1.875q0.78125 -1.09375 1.78125 -1.640625q1.0 -0.5625 2.421875 -0.5625q1.859375 0 3.28125 0.953125q1.421875 0.953125 2.140625 2.703125q0.734375 1.734375 0.734375 3.8125q0 2.234375 -0.796875 4.015625q-0.796875 1.78125 -2.328125 2.734375q-1.53125 0.953125 -3.203125 0.953125q-1.234375 0 -2.21875 -0.515625q-0.96875 -0.53125 -1.59375 -1.3125l0 7.0625l-2.46875 0zm2.234375 -12.734375q0 2.796875 1.125 4.140625q1.140625 1.328125 2.75 1.328125q1.640625 0 2.8125 -1.375q1.171875 -1.390625 1.171875 -4.3125q0 -2.765625 -1.140625 -4.140625q-1.140625 -1.390625 -2.734375 -1.390625q-1.5625 0 -2.78125 1.46875q-1.203125 1.46875 -1.203125 4.28125zm13.353516 -10.046875l0 -2.828125l2.46875 0l0 2.828125l-2.46875 0zm0 17.21875l0 -14.515625l2.46875 0l0 14.515625l-2.46875 0zm15.689453 -5.3125l2.40625 0.3125q-0.390625 2.5 -2.03125 3.921875q-1.625 1.40625 -4.0 1.40625q-2.984375 0 -4.796875 -1.9375q-1.8125 -1.953125 -1.8125 -5.59375q0 -2.359375 0.78125 -4.109375q0.78125 -1.765625 2.375 -2.640625q1.59375 -0.890625 3.46875 -0.890625q2.359375 0 3.859375 1.203125q1.5 1.1875 1.9375 3.390625l-2.40625 0.359375q-0.328125 -1.453125 -1.203125 -2.1875q-0.875 -0.75 -2.09375 -0.75q-1.859375 0 -3.03125 1.34375q-1.15625 1.328125 -1.15625 4.203125q0 2.9375 1.109375 4.265625q1.125 1.3125 2.9375 1.3125q1.453125 0 2.421875 -0.875q0.96875 -0.890625 1.234375 -2.734375zm3.5625 -0.703125l0 -2.46875l7.5625 0l0 2.46875l-7.5625 0zm18.871094 6.015625l-2.46875 0l0 -15.6875q-0.890625 0.859375 -2.328125 1.703125q-1.4375 0.84375 -2.59375 1.265625l0 -2.375q2.0625 -0.96875 3.609375 -2.34375q1.546875 -1.390625 2.1875 -2.6875l1.59375 0l0 20.125z" fill-rule="nonzero"/></g></svg>